# xmcd
#
# Track frame offsets:
#	150
#	13686
#	33092
#	52335
#	67455
#	82075
#	98967
#	114031
#	128646
#	143970
#	158692
#	173102
#	192900
#	209230
#	221589
#
# Disc length: 3114 seconds
#
# Revision: 1
# Processed by: cddbd v1.5.1PL0 Copyright (c) Steve Scherf et al.
# Submitted via: audiograbber 1.83.01
#
DISCID=e00c280f
DTITLE=Freddy Birset - Merci Ma Vie
DYEAR=2004
DGENRE=Chanson
TTITLE0=La Maladie D´amour
TTITLE1=La Bohème
TTITLE2=Merci Ma Vie
TTITLE3=Qui Saura
TTITLE4=Jéntends Siffler Le Train
TTITLE5=Espoir D´amour
TTITLE6=En Chantant
TTITLE7=Amour Déconvenue
TTITLE8=Comme J´ai Toujours Envie D`aimer
TTITLE9=Tous Les Garcons Et Les Filles
TTITLE10=Immuable La Mer
TTITLE11=Ne Me Quitte Pas
TTITLE12=La Porte
TTITLE13=J`ai Tout Mon Temps
TTITLE14=Non Je Ne Regrette Rien
EXTD=
EXTT0=
EXTT1=
EXTT2=
EXTT3=
EXTT4=
EXTT5=
EXTT6=
EXTT7=
EXTT8=
EXTT9=
EXTT10=
EXTT11=
EXTT12=
EXTT13=
EXTT14=
PLAYORDER=
